<svg width="938" height="184" viewBox="0 0 938 184" fill="none" xmlns="http://www.w3.org/2000/svg">
<mask id="mask0_80_651" style="mask-type:luminance" maskUnits="userSpaceOnUse" x="155" y="0" width="129" height="128">
<path d="M155.667 0.692749H283.667V128H155.667V0.692749Z" fill="white"/>
</mask>
<g mask="url(#mask0_80_651)">
<path d="M283.021 63.8073C283.021 65.875 282.922 67.9375 282.719 69.9948C282.516 72.0521 282.214 74.0938 281.813 76.125C281.407 78.1511 280.907 80.1511 280.308 82.1303C279.709 84.1094 279.016 86.0521 278.224 87.9636C277.433 89.875 276.552 91.7396 275.578 93.5625C274.61 95.3855 273.547 97.1563 272.401 98.875C271.256 100.594 270.026 102.25 268.719 103.849C267.407 105.448 266.026 106.979 264.568 108.438C263.104 109.901 261.578 111.287 259.985 112.599C258.391 113.912 256.735 115.141 255.016 116.287C253.302 117.438 251.532 118.5 249.714 119.474C247.891 120.448 246.032 121.328 244.125 122.12C242.214 122.912 240.276 123.609 238.302 124.208C236.328 124.807 234.328 125.307 232.302 125.714C230.276 126.115 228.24 126.417 226.188 126.62C224.131 126.823 222.073 126.927 220.011 126.927C217.948 126.927 215.886 126.823 213.834 126.62C211.782 126.417 209.74 126.115 207.714 125.714C205.693 125.307 203.693 124.807 201.719 124.208C199.745 123.609 197.802 122.912 195.896 122.12C193.99 121.328 192.125 120.448 190.308 119.474C188.485 118.5 186.719 117.438 185 116.287C183.287 115.141 181.631 113.912 180.037 112.599C178.438 111.287 176.912 109.901 175.453 108.438C173.995 106.979 172.61 105.448 171.302 103.849C169.99 102.25 168.766 100.594 167.615 98.875C166.469 97.1563 165.412 95.3855 164.438 93.5625C163.464 91.7396 162.584 89.875 161.792 87.9636C161.006 86.0521 160.308 84.1094 159.709 82.1303C159.11 80.1511 158.61 78.1511 158.209 76.125C157.808 74.0938 157.506 72.0521 157.302 69.9948C157.099 67.9375 156.995 65.875 156.995 63.8073C156.995 61.7396 157.099 59.6823 157.302 57.625C157.506 55.5678 157.808 53.5209 158.209 51.4948C158.61 49.4688 159.11 47.4636 159.709 45.4896C160.308 43.5105 161.006 41.5677 161.792 39.6563C162.584 37.7448 163.464 35.8802 164.438 34.0573C165.412 32.2344 166.469 30.4636 167.615 28.7448C168.766 27.0261 169.99 25.3646 171.302 23.7709C172.61 22.1719 173.995 20.6407 175.453 19.1771C176.912 17.7188 178.438 16.3334 180.037 15.0209C181.631 13.7084 183.287 12.4792 185 11.3282C186.719 10.1823 188.485 9.11983 190.308 8.14587C192.125 7.17192 193.99 6.2865 195.896 5.50004C197.802 4.70837 199.745 4.01046 201.719 3.4115C203.693 2.81254 205.693 2.30733 207.714 1.90629C209.74 1.50525 211.782 1.19796 213.834 0.994832C215.886 0.796915 217.948 0.692749 220.011 0.692749C222.073 0.692749 224.131 0.796915 226.188 0.994832C228.24 1.19796 230.276 1.50525 232.302 1.90629C234.328 2.30733 236.328 2.81254 238.302 3.4115C240.276 4.01046 242.214 4.70837 244.125 5.50004C246.032 6.2865 247.891 7.17192 249.714 8.14587C251.532 9.11983 253.302 10.1823 255.016 11.3282C256.735 12.4792 258.391 13.7084 259.985 15.0209C261.578 16.3334 263.104 17.7188 264.568 19.1771C266.026 20.6407 267.407 22.1719 268.719 23.7709C270.026 25.3646 271.256 27.0261 272.401 28.7448C273.547 30.4636 274.61 32.2344 275.578 34.0573C276.552 35.8802 277.433 37.7448 278.224 39.6563C279.016 41.5677 279.709 43.5105 280.308 45.4896C280.907 47.4636 281.407 49.4688 281.813 51.4948C282.214 53.5209 282.516 55.5678 282.719 57.625C282.922 59.6823 283.021 61.7396 283.021 63.8073Z" fill="#737DD9"/>
</g>
<path d="M227.182 34.2083C227.182 35.2135 227.083 36.2031 226.891 37.1875C226.693 38.1719 226.406 39.125 226.021 40.0469C225.641 40.974 225.172 41.8542 224.615 42.6875C224.057 43.5208 223.427 44.2917 222.719 45C222.01 45.7083 221.245 46.3385 220.411 46.8958C219.578 47.4531 218.703 47.9219 217.781 48.3073C216.854 48.6875 215.901 48.9792 214.922 49.1719C213.943 49.3698 212.948 49.4688 211.948 49.4688C210.948 49.4688 209.958 49.3698 208.979 49.1719C208 48.9792 207.047 48.6875 206.12 48.3073C205.198 47.9219 204.318 47.4531 203.49 46.8958C202.656 46.3385 201.885 45.7083 201.182 45C200.474 44.2917 199.844 43.5208 199.286 42.6875C198.729 41.8542 198.26 40.974 197.88 40.0469C197.495 39.125 197.208 38.1719 197.01 37.1875C196.818 36.2031 196.719 35.2135 196.719 34.2083C196.719 33.2083 196.818 32.2188 197.01 31.2344C197.208 30.25 197.495 29.2969 197.88 28.3698C198.26 27.4479 198.729 26.5677 199.286 25.7344C199.844 24.901 200.474 24.1302 201.182 23.4219C201.885 22.7135 202.656 22.0833 203.49 21.526C204.318 20.9687 205.198 20.5 206.12 20.1146C207.047 19.7344 208 19.4427 208.979 19.2448C209.958 19.0521 210.948 18.9531 211.948 18.9531C212.948 18.9531 213.943 19.0521 214.922 19.2448C215.901 19.4427 216.854 19.7344 217.781 20.1146C218.703 20.5 219.578 20.9687 220.411 21.526C221.245 22.0833 222.01 22.7135 222.719 23.4219C223.427 24.1302 224.057 24.901 224.615 25.7344C225.172 26.5677 225.641 27.4479 226.021 28.3698C226.406 29.2969 226.693 30.25 226.891 31.2344C227.083 32.2188 227.182 33.2083 227.182 34.2083Z" fill="white"/>
<mask id="mask1_80_651" style="mask-type:luminance" maskUnits="userSpaceOnUse" x="0" y="1" width="135" height="127">
<path d="M0.723633 1.33337H134.333V128H0.723633V1.33337Z" fill="white"/>
</mask>
<g mask="url(#mask1_80_651)">
<path d="M0.978516 126.927V2.41669H72.9629C108.015 2.41669 133.499 27.2604 133.499 63.3906C133.499 99.5209 108.015 126.927 72.9629 126.927H0.978516ZM72.9629 105.161C95.3692 105.161 111.77 87.8698 111.77 64.4115C111.77 40.9531 95.3692 24.1511 72.9629 24.1511H22.5202V105.161H72.9629Z" fill="#737DD9"/>
</g>
<path d="M353.729 126.927V24.151H306.547V2.41663H422.63V24.177H375.453V126.927H353.729Z" fill="#737DD9"/>
<mask id="mask2_80_651" style="mask-type:luminance" maskUnits="userSpaceOnUse" x="478" y="0" width="166" height="128">
<path d="M478.333 0.692749H643.666V128H478.333V0.692749Z" fill="white"/>
</mask>
<g mask="url(#mask2_80_651)">
<path d="M616.885 126.927L598.234 95.5782H539.422L549.672 77.9428H587.802L560.104 31.3646L503.693 126.927H478.891L550.354 7.71879C552.906 3.43754 556.167 0.692749 560.969 0.692749C565.766 0.692749 568.844 3.43754 571.401 7.71879L643.042 126.927H616.885Z" fill="#737DD9"/>
</g>
<path d="M693.823 92.3125V71.2552H743.745C758.948 71.2552 768.026 61.6666 768.026 47.6145C768.026 33.5573 758.974 24.151 743.745 24.151H677.912V126.901H656.37V2.41663H743.745C772.459 2.41663 789.229 19.7135 789.229 46.9323C789.229 74.1562 772.485 92.3125 743.745 92.3125H693.823Z" fill="#737DD9"/>
<mask id="mask3_80_651" style="mask-type:luminance" maskUnits="userSpaceOnUse" x="803" y="1" width="135" height="127">
<path d="M803.667 1.33337H937.724V128H803.667V1.33337Z" fill="white"/>
</mask>
<g mask="url(#mask3_80_651)">
<path d="M842.068 92.3125V71.2552H891.99C907.193 71.2552 916.271 61.6667 916.271 47.6146C916.271 33.5573 907.219 24.1511 891.99 24.1511H826.157V126.901H804.615V2.41669H891.99C920.704 2.41669 937.475 19.7136 937.475 46.9323C937.475 74.1563 920.73 92.3125 891.99 92.3125H842.068Z" fill="#737DD9"/>
</g>
<mask id="mask4_80_651" style="mask-type:luminance" maskUnits="userSpaceOnUse" x="129" y="145" width="42" height="39">
<path d="M129 145.333H170.333V183.693H129V145.333Z" fill="white"/>
</mask>
<g mask="url(#mask4_80_651)">
<path d="M130.058 183.198V146.125H157.131C164.354 146.125 169.151 149.391 169.151 155.714C169.151 160.417 166.75 162.74 164.016 163.63C167.375 164.703 169.828 167.651 169.828 171.99C169.828 178.781 165.136 183.198 157.912 183.198H130.058ZM141.193 167.078V161.62H157.183C160.86 161.62 162.578 160.339 162.578 157.125C162.578 153.208 159.474 152.578 154.703 152.578H136.526V176.745H155.25C159.891 176.745 163.229 175.464 163.229 171.859C163.229 168.802 161.25 167.078 157.625 167.078H141.193Z" fill="#737DD9"/>
</g>
<mask id="mask5_80_651" style="mask-type:luminance" maskUnits="userSpaceOnUse" x="174" y="145" width="35" height="39">
<path d="M174.333 145.333H209V183.693H174.333V145.333Z" fill="white"/>
</mask>
<g mask="url(#mask5_80_651)">
<path d="M175.463 183.198V146.125H208.505V152.604H181.88V176.719H208.557V183.198H175.463ZM186.598 167.078V161.62H207.124V167.078H186.598Z" fill="#737DD9"/>
</g>
<mask id="mask6_80_651" style="mask-type:luminance" maskUnits="userSpaceOnUse" x="226" y="145" width="50" height="39">
<path d="M226.333 145.333H275.666V183.693H226.333V145.333Z" fill="white"/>
</mask>
<g mask="url(#mask6_80_651)">
<path d="M267.635 183.198L262.077 173.87H244.577L247.63 168.62H258.973L250.734 154.75L233.937 183.198H226.557L247.838 147.719C248.593 146.437 249.557 145.63 250.994 145.63C252.426 145.63 253.338 146.437 254.098 147.719L275.432 183.198H267.635Z" fill="#737DD9"/>
</g>
<mask id="mask7_80_651" style="mask-type:luminance" maskUnits="userSpaceOnUse" x="291" y="145" width="50" height="39">
<path d="M291.667 145.333H341V183.693H291.667V145.333Z" fill="white"/>
</mask>
<g mask="url(#mask7_80_651)">
<path d="M291.865 146.125H299.74L316.537 174.682L333.282 146.125H340.714L319.381 181.604C318.62 182.885 317.604 183.693 316.276 183.693C314.839 183.693 313.875 182.885 313.12 181.604L291.839 146.125H291.865Z" fill="#737DD9"/>
</g>
<mask id="mask8_80_651" style="mask-type:luminance" maskUnits="userSpaceOnUse" x="330" y="145" width="50" height="39">
<path d="M330.333 145.333H379.666V183.693H330.333V145.333Z" fill="white"/>
</mask>
<g mask="url(#mask8_80_651)">
<path d="M371.775 183.198L366.218 173.87H348.718L351.77 168.62H363.114L354.874 154.75L338.077 183.198H330.697L351.979 147.719C352.734 146.437 353.697 145.63 355.135 145.63C356.567 145.63 357.484 146.437 358.239 147.719L379.572 183.198H371.775Z" fill="#737DD9"/>
</g>
<mask id="mask9_80_651" style="mask-type:luminance" maskUnits="userSpaceOnUse" x="382" y="145" width="34" height="39">
<path d="M382.333 145.333H415.666V183.693H382.333V145.333Z" fill="white"/>
</mask>
<g mask="url(#mask9_80_651)">
<path d="M383.51 183.198V146.125H389.979V176.719H414.859V183.198H383.51Z" fill="#737DD9"/>
</g>
<mask id="mask10_80_651" style="mask-type:luminance" maskUnits="userSpaceOnUse" x="418" y="145" width="42" height="39">
<path d="M418.333 145.333H459.666V183.693H418.333V145.333Z" fill="white"/>
</mask>
<g mask="url(#mask10_80_651)">
<path d="M452.573 146.125H458.885V166.818C458.885 178.286 453.224 183.693 438.88 183.693C424.536 183.693 418.927 178.286 418.927 166.818V146.125H425.604V166.818C425.604 174.26 428.916 177.318 439.088 177.318C449.26 177.318 452.573 174.26 452.573 166.818V146.125Z" fill="#737DD9"/>
</g>
<mask id="mask11_80_651" style="mask-type:luminance" maskUnits="userSpaceOnUse" x="458" y="145" width="51" height="39">
<path d="M458.333 145.333H509V183.693H458.333V145.333Z" fill="white"/>
</mask>
<g mask="url(#mask11_80_651)">
<path d="M500.172 183.198L494.615 173.87H477.115L480.167 168.62H491.51L483.271 154.75L466.474 183.198H459.094L480.375 147.719C481.13 146.437 482.099 145.63 483.531 145.63C484.969 145.63 485.88 146.437 486.635 147.719L507.969 183.198H500.172Z" fill="#737DD9"/>
</g>
<mask id="mask12_80_651" style="mask-type:luminance" maskUnits="userSpaceOnUse" x="511" y="145" width="41" height="39">
<path d="M511.667 145.333H551.667V183.693H511.667V145.333Z" fill="white"/>
</mask>
<g mask="url(#mask12_80_651)">
<path d="M511.881 183.198V146.125H538.954C546.178 146.125 550.98 149.391 550.98 155.714C550.98 160.417 548.579 162.74 545.839 163.63C549.204 164.703 551.657 167.651 551.657 171.99C551.657 178.781 546.964 183.198 539.735 183.198H511.881ZM523.021 167.078V161.62H539.006C542.683 161.62 544.407 160.339 544.407 157.125C544.407 153.208 541.303 152.578 536.527 152.578H518.35V176.745H537.079C541.719 176.745 545.058 175.464 545.058 171.859C545.058 168.802 543.074 167.078 539.449 167.078H523.021Z" fill="#737DD9"/>
</g>
<mask id="mask13_80_651" style="mask-type:luminance" maskUnits="userSpaceOnUse" x="557" y="145" width="32" height="39">
<path d="M557 145.333H589V183.693H557V145.333Z" fill="white"/>
</mask>
<g mask="url(#mask13_80_651)">
<path d="M557.266 183.198V146.125H563.729V176.719H588.615V183.198H557.261H557.266Z" fill="#737DD9"/>
</g>
<mask id="mask14_80_651" style="mask-type:luminance" maskUnits="userSpaceOnUse" x="593" y="145" width="35" height="39">
<path d="M593 145.333H627.667V183.693H593V145.333Z" fill="white"/>
</mask>
<g mask="url(#mask14_80_651)">
<path d="M593.255 183.198V146.125H626.302V152.604H599.672V176.719H626.354V183.198H593.255ZM604.416 167.078V161.62H624.942V167.078H604.416Z" fill="#737DD9"/>
</g>
<mask id="mask15_80_651" style="mask-type:luminance" maskUnits="userSpaceOnUse" x="646" y="145" width="41" height="39">
<path d="M646.333 145.333H686.333V183.693H646.333V145.333Z" fill="white"/>
</mask>
<g mask="url(#mask15_80_651)">
<path d="M646.849 183.198V146.125H668.291C678.724 146.125 686.312 153.521 686.312 164.281C686.312 175.047 678.724 183.198 668.291 183.198H646.849ZM668.291 176.719C674.968 176.719 679.843 171.573 679.843 164.599C679.843 157.62 674.968 152.604 668.291 152.604H653.265V176.719H668.291Z" fill="#737DD9"/>
</g>
<mask id="mask16_80_651" style="mask-type:luminance" maskUnits="userSpaceOnUse" x="690" y="145" width="46" height="39">
<path d="M690.333 145.333H735.666V183.693H690.333V145.333Z" fill="white"/>
</mask>
<g mask="url(#mask16_80_651)">
<path d="M708.479 183.198C698.15 183.198 690.51 175.047 690.51 164.281C690.51 153.521 698.15 146.125 708.479 146.125H717.479C728.171 146.125 735.604 153.521 735.604 164.281C735.604 175.047 728.015 183.198 717.479 183.198H708.479ZM717.505 176.719C724.338 176.719 729.161 171.573 729.161 164.599C729.161 157.62 724.338 152.604 717.505 152.604H708.505C701.88 152.604 697.005 157.542 697.005 164.599C697.005 171.651 701.827 176.719 708.505 176.719H717.505Z" fill="#737DD9"/>
</g>
<mask id="mask17_80_651" style="mask-type:luminance" maskUnits="userSpaceOnUse" x="737" y="145" width="36" height="39">
<path d="M737 145.333H773V183.693H737V145.333Z" fill="white"/>
</mask>
<g mask="url(#mask17_80_651)">
<path d="M751.854 183.198V152.604H737.797V146.125H772.354V152.604H758.297V183.198H751.828H751.854Z" fill="#737DD9"/>
</g>
</svg>
